# xmcd
#
# Track frame offsets: 
#        150
#        82541
#        98982
#        223312
#        237612
#
# Disc length: 3937 seconds
#
# Revision: 0
# Processed by: cddbd v1.5.2PL0 Copyright (c) Steve Scherf et al.
# Submitted via: ExactAudioCopy v0.95b3
#
DISCID=3d0f5f05
DTITLE=Led Zeppelin  - Rumble In Sydney - 1972 Feb 27 Sydney, Australi
DTITLE=a - Disc 2
DYEAR=1900
DGENRE=
TTITLE0=Moby Dick
TTITLE1=Rock And Roll
TTITLE2=Whole Lotta Love Medley
TTITLE3=Communication Breakdown
TTITLE4=Organ Solo-Thank You
EXTD=
EXTT0=
EXTT1=
EXTT2=
EXTT3=
EXTT4=
PLAYORDER=
